# xmcd
#
# Track frame offsets:
#	187
#	23712
#	43227
#	58517
#	76310
#
# Disc length: 1329 seconds
#
# Revision: 1
# Processed by: cddbd v1.4PL0 Copyright (c) Steve Scherf et al.
# Submitted via: audiograbber 1.80.04
#
DISCID=36052f05
DTITLE=Faith Evans - ain't nobody (who could love me)
DYEAR=1900
DGENRE=
TTITLE0=Ain't Nobody
TTITLE1=Ain't Nobody (Who Could Love Me)
TTITLE2=Kissing You
TTITLE3=Ain't Nobody (Who Could Love Me) instrumental
TTITLE4=Ain't Nobody (instrumental)
EXTD=
EXTT0=
EXTT1=
EXTT2=
EXTT3=
EXTT4=
PLAYORDER=
